<svg width="40" height="40" viewBox="0 0 40 40" fill="none" xmlns="http://www.w3.org/2000/svg">
<path d="M0 4C0 1.79086 1.79086 0 4 0H35.375C37.5841 0 39.375 1.79086 39.375 4V36C39.375 38.2091 37.5841 40 35.375 40H4C1.79086 40 0 38.2091 0 36V4Z" fill="#003366"/>
<path d="M15.576 13.8636V25.5H14.1669V13.8636H15.576ZM24.4524 16.7727C24.3842 16.197 24.1077 15.75 23.6229 15.4318C23.138 15.1136 22.5433 14.9545 21.8388 14.9545C21.3236 14.9545 20.8729 15.0379 20.4865 15.2045C20.1039 15.3712 19.8047 15.6004 19.5888 15.892C19.3767 16.1837 19.2706 16.5152 19.2706 16.8864C19.2706 17.197 19.3445 17.464 19.4922 17.6875C19.6437 17.9072 19.8369 18.0909 20.0717 18.2386C20.3066 18.3826 20.5528 18.5019 20.8104 18.5966C21.0679 18.6875 21.3047 18.7614 21.5206 18.8182L22.7024 19.1364C23.0054 19.2159 23.3426 19.3258 23.7138 19.4659C24.0888 19.6061 24.4467 19.7973 24.7876 20.0398C25.1323 20.2784 25.4164 20.5852 25.6399 20.9602C25.8634 21.3352 25.9751 21.7955 25.9751 22.3409C25.9751 22.9697 25.8104 23.5379 25.4808 24.0455C25.1551 24.553 24.6778 24.9564 24.049 25.2557C23.424 25.5549 22.6645 25.7045 21.7706 25.7045C20.9373 25.7045 20.2157 25.5701 19.6058 25.3011C18.9998 25.0322 18.5225 24.6572 18.174 24.1761C17.8293 23.6951 17.6342 23.1364 17.5888 22.5H19.0433C19.0812 22.9394 19.2289 23.303 19.4865 23.5909C19.7479 23.875 20.0774 24.0871 20.4751 24.2273C20.8767 24.3636 21.3085 24.4318 21.7706 24.4318C22.3085 24.4318 22.7914 24.3447 23.2195 24.1705C23.6475 23.9924 23.9865 23.7462 24.2365 23.4318C24.4865 23.1136 24.6115 22.7424 24.6115 22.3182C24.6115 21.9318 24.5036 21.6174 24.2876 21.375C24.0717 21.1326 23.7876 20.9356 23.4354 20.7841C23.0831 20.6326 22.7024 20.5 22.2933 20.3864L20.8615 19.9773C19.9524 19.7159 19.2327 19.3428 18.7024 18.858C18.1721 18.3731 17.907 17.7386 17.907 16.9545C17.907 16.303 18.0831 15.7348 18.4354 15.25C18.7914 14.7614 19.2687 14.3826 19.8672 14.1136C20.4695 13.8409 21.1418 13.7045 21.8842 13.7045C22.6342 13.7045 23.3009 13.839 23.8842 14.108C24.4676 14.3731 24.9297 14.7367 25.2706 15.1989C25.6153 15.661 25.7971 16.1856 25.8161 16.7727H24.4524Z" fill="white"/>
</svg>
