<svg width="197" height="165" viewBox="0 0 197 165" fill="none" xmlns="http://www.w3.org/2000/svg">
<g clip-path="url(#clip0_100_1975)">
<path d="M0 111.48C0 111.48 62.63 18.55 67.97 7.88C70.14 4.62 75.85 0 78.56 0H196.45C196.45 0 180.97 23.36 170.1 39.39C123.92 37.49 102.46 36.67 73.13 76.87C43.8 117.07 17.32 111.59 0 111.48Z" fill="#003366"/>
<path d="M32.6499 164.06C38.3499 164.06 46.4999 164.6 72.3099 164.06C98.1199 163.52 118.76 157.54 136.69 138.53C154.62 119.52 142.75 101.97 159.66 67.91C143.98 68.89 119.49 70.85 103 100.78C86.5099 130.71 60.8999 125.77 48.9499 126.31C45.9999 140.48 40.4599 154.03 32.6499 164.07V164.06Z" fill="#003366"/>
</g>
<defs>
<clipPath id="clip0_100_1975">
<rect width="196.45" height="164.31" fill="white"/>
</clipPath>
</defs>
</svg>
